<svg width="46" height="41" viewBox="0 0 46 41" fill="none" xmlns="http://www.w3.org/2000/svg">
<path d="M37.2501 5.07326e-05C35.0625 0.00144152 32.9649 0.871082 31.418 2.41796C29.8712 3.96483 29.0015 6.06244 29.0001 8.25005C29 9.01158 29.1086 9.76923 29.3226 10.5001H12.0201L11.1426 2.16755C11.0848 1.57344 10.8076 1.02219 10.3653 0.621419C9.92289 0.220646 9.34704 -0.000891403 8.75012 5.07326e-05H2.75012C2.45552 -0.00195375 2.16355 0.0554599 1.89164 0.16886C1.61974 0.282261 1.37349 0.44932 1.16762 0.660051C0.894148 0.92818 0.694535 1.26237 0.588106 1.63028C0.481677 1.99818 0.472037 2.38733 0.560119 2.76005C0.696017 3.26612 0.997175 3.71225 1.41572 4.02752C1.83427 4.34279 2.34619 4.50912 2.87012 4.50005H6.58262L9.41012 30.0075C8.44499 30.0608 7.53768 30.4846 6.87751 31.1907C6.21733 31.8967 5.85528 32.8304 5.86689 33.7969C5.8785 34.7634 6.26287 35.6881 6.93982 36.3781C7.61676 37.0681 8.53399 37.47 9.50012 37.5001H13.3251C13.4973 38.3478 13.9572 39.1099 14.6269 39.6573C15.2967 40.2048 16.1351 40.5038 17.0001 40.5038C17.8651 40.5038 18.7036 40.2048 19.3733 39.6573C20.0431 39.1099 20.503 38.3478 20.6751 37.5001H28.3251C28.4973 38.3478 28.9572 39.1099 29.6269 39.6573C30.2967 40.2048 31.1351 40.5038 32.0001 40.5038C32.8651 40.5038 33.7036 40.2048 34.3733 39.6573C35.0431 39.1099 35.503 38.3478 35.6751 37.5001H38.7501C38.949 37.5001 39.1398 37.421 39.2804 37.2804C39.4211 37.1397 39.5001 36.949 39.5001 36.7501C39.5001 36.5511 39.4211 36.3604 39.2804 36.2197C39.1398 36.0791 38.949 36.0001 38.7501 36.0001H35.6751C35.503 35.1523 35.0431 34.3902 34.3733 33.8428C33.7036 33.2953 32.8651 32.9963 32.0001 32.9963C31.1351 32.9963 30.2967 33.2953 29.6269 33.8428C28.9572 34.3902 28.4973 35.1523 28.3251 36.0001H20.6751C20.503 35.1523 20.0431 34.3902 19.3733 33.8428C18.7036 33.2953 17.8651 32.9963 17.0001 32.9963C16.1351 32.9963 15.2967 33.2953 14.6269 33.8428C13.9572 34.3902 13.4973 35.1523 13.3251 36.0001H9.50012C8.90338 36 8.33108 35.763 7.90913 35.341C7.48717 34.9191 7.25012 34.3468 7.25012 33.7501C7.25012 33.1533 7.48717 32.581 7.90913 32.1591C8.33108 31.7371 8.90338 31.5001 9.50012 31.5001H38.2626C38.7849 31.5006 39.2909 31.3188 39.6935 30.9861C40.096 30.6533 40.3698 30.1906 40.4676 29.6776L43.5651 13.545C44.576 12.3434 45.2225 10.878 45.4285 9.32134C45.6345 7.76465 45.3914 6.18151 44.7279 4.75833C44.0644 3.33515 43.008 2.13118 41.6832 1.28818C40.3585 0.445188 38.8204 -0.00172995 37.2501 5.07326e-05ZM32.0001 34.5001C32.4451 34.5001 32.8801 34.632 33.2502 34.8792C33.6202 35.1265 33.9086 35.4779 34.0788 35.889C34.2491 36.3001 34.2937 36.7525 34.2069 37.189C34.1201 37.6255 33.9058 38.0264 33.5911 38.341C33.2764 38.6557 32.8755 38.87 32.4391 38.9568C32.0026 39.0436 31.5502 38.9991 31.1391 38.8288C30.7279 38.6585 30.3765 38.3701 30.1293 38.0001C29.8821 37.6301 29.7501 37.1951 29.7501 36.7501C29.7519 36.1539 29.9895 35.5826 30.4111 35.161C30.8327 34.7395 31.4039 34.5018 32.0001 34.5001ZM17.0001 34.5001C17.4451 34.5001 17.8801 34.632 18.2502 34.8792C18.6202 35.1265 18.9086 35.4779 19.0788 35.889C19.2491 36.3001 19.2937 36.7525 19.2069 37.189C19.1201 37.6255 18.9058 38.0264 18.5911 38.341C18.2764 38.6557 17.8755 38.87 17.4391 38.9568C17.0026 39.0436 16.5502 38.9991 16.1391 38.8288C15.7279 38.6585 15.3765 38.3701 15.1293 38.0001C14.8821 37.6301 14.7501 37.1951 14.7501 36.7501C14.7519 36.1539 14.9895 35.5826 15.4111 35.161C15.8327 34.7395 16.4039 34.5018 17.0001 34.5001ZM38.9976 29.3926C38.9646 29.5633 38.8732 29.7173 38.7391 29.8281C38.605 29.939 38.4366 29.9997 38.2626 30.0001H10.9251L8.06762 4.32755C8.02526 3.96162 7.84972 3.62407 7.57447 3.37925C7.29921 3.13442 6.9435 2.99945 6.57512 3.00005H2.87012C2.68518 3.00949 2.50224 2.95816 2.34921 2.85388C2.19618 2.74961 2.08148 2.59812 2.02262 2.42255C1.9901 2.29706 1.99247 2.16506 2.02948 2.04082C2.06649 1.91657 2.13673 1.8048 2.23262 1.71755C2.29905 1.64735 2.37937 1.59176 2.46847 1.55431C2.55757 1.51687 2.65349 1.49839 2.75012 1.50005H8.75012C8.97573 1.50149 9.19275 1.5867 9.35906 1.73916C9.52537 1.89161 9.62911 2.10042 9.65012 2.32505L10.6026 11.3251C10.6211 11.5094 10.7073 11.6804 10.8444 11.805C10.9815 11.9297 11.1598 11.9991 11.3451 12H29.9076C30.1802 12.5339 30.5096 13.0368 30.8901 13.5H11.6376C11.533 13.5003 11.4295 13.5224 11.3339 13.5651C11.2383 13.6077 11.1527 13.6699 11.0826 13.7476C11.0129 13.8257 10.9596 13.9171 10.9261 14.0164C10.8926 14.1156 10.8795 14.2206 10.8876 14.3251L12.2151 27.8251C12.2336 28.0094 12.3198 28.1804 12.4569 28.305C12.594 28.4297 12.7723 28.4991 12.9576 28.5001H37.2501C37.4286 28.5006 37.6014 28.4374 37.7375 28.3219C37.8736 28.2065 37.9641 28.0462 37.9926 27.8701L39.9651 16.035C40.5832 15.8147 41.1744 15.5254 41.7276 15.1726L38.9976 29.3926ZM26.0001 22.5V19.5H31.4151L31.0776 22.5H26.0001ZM30.9126 24.0001L30.5751 27.0001H26.0001V24.0001H30.9126ZM26.0001 18V15H31.9101L31.5801 18H26.0001ZM19.4226 22.5L19.0851 19.5H24.5001V22.5H19.4226ZM24.5001 24.0001V27.0001H19.9251L19.5876 24.0001H24.5001ZM18.9201 18L18.5901 15H24.5001V18H18.9201ZM17.5776 19.5L17.9151 22.5H13.1976L12.9051 19.5H17.5776ZM12.7551 18L12.4626 15H17.0751L17.4126 18H12.7551ZM18.0801 24.0001L18.4101 27.0001H13.6401L13.3476 24.0001H18.0801ZM37.8651 19.5L37.3626 22.5H32.5851L32.9226 19.5H37.8651ZM33.0876 18L33.3651 15.5251C34.8958 16.3609 36.6583 16.6717 38.3826 16.41L38.1126 18H33.0876ZM37.1151 24.0001L36.6126 27.0001H32.0901L32.4201 24.0001H37.1151ZM37.2501 15C35.9151 15 34.6101 14.6042 33.5 13.8625C32.39 13.1208 31.5248 12.0666 31.0139 10.8332C30.503 9.59976 30.3694 8.24256 30.6298 6.93319C30.8903 5.62382 31.5331 4.42108 32.4771 3.47708C33.4212 2.53308 34.6239 1.8902 35.9333 1.62975C37.2426 1.3693 38.5998 1.50297 39.8332 2.01386C41.0666 2.52476 42.1208 3.38992 42.8625 4.49995C43.6042 5.60998 44.0001 6.91503 44.0001 8.25005C43.9973 10.0394 43.2853 11.7547 42.02 13.02C40.7548 14.2852 39.0395 14.9973 37.2501 15Z" fill="#545969"/>
<path d="M36.5 9V12.75C36.5 12.9489 36.579 13.1397 36.7197 13.2803C36.8603 13.421 37.0511 13.5 37.25 13.5C37.4489 13.5 37.6397 13.421 37.7803 13.2803C37.921 13.1397 38 12.9489 38 12.75V9H41.75C41.9489 9 42.1397 8.92098 42.2803 8.78033C42.421 8.63968 42.5 8.44891 42.5 8.25C42.5 8.05109 42.421 7.86032 42.2803 7.71967C42.1397 7.57902 41.9489 7.5 41.75 7.5H38V3.75C38 3.55109 37.921 3.36032 37.7803 3.21967C37.6397 3.07902 37.4489 3 37.25 3C37.0511 3 36.8603 3.07902 36.7197 3.21967C36.579 3.36032 36.5 3.55109 36.5 3.75V7.5H32.75C32.5511 7.5 32.3603 7.57902 32.2197 7.71967C32.079 7.86032 32 8.05109 32 8.25C32 8.44891 32.079 8.63968 32.2197 8.78033C32.3603 8.92098 32.5511 9 32.75 9H36.5Z" fill="#545969"/>
</svg>
