<svg width="20" height="20" viewBox="0 0 20 20" fill="none" xmlns="http://www.w3.org/2000/svg">
    <circle cx="10" cy="10" r="10" fill="#FFCF5B" />
    <circle cx="10" cy="10" r="7.5" stroke="#FAB44A" />
    <g clip-path="url(#clip0)">
        <path
            d="M10.4418 9.37516V7.15321C10.9172 7.23338 11.3654 7.42843 11.7485 7.72132C11.8249 7.7737 11.9145 7.80212 12.0073 7.80337C12.3046 7.80337 12.547 7.56413 12.5502 7.26682C12.5508 7.13932 12.501 7.01686 12.4113 6.92596C11.8577 6.45189 11.1634 6.17226 10.4355 6.1306V5.38573C10.4355 5.17299 10.2632 5.00067 10.0505 5.00067C10.0461 5.00004 10.0416 5.00004 10.0372 5.00004C9.82133 4.99688 9.64332 5.16922 9.64016 5.38573V6.10535C8.21987 6.20634 7.25408 7.08377 7.25408 8.25156C7.25408 9.68446 8.47238 10.0822 9.64016 10.3978V12.9227C9.02406 12.84 8.44333 12.5844 7.96737 12.1842C7.87774 12.1129 7.76663 12.0731 7.65174 12.0706C7.36074 12.0908 7.13666 12.3344 7.14043 12.6261C7.1398 12.7536 7.18967 12.876 7.2793 12.9669C7.93137 13.554 8.76966 13.8917 9.64645 13.9201V14.6145C9.64645 14.6189 9.64707 14.6233 9.64707 14.6277C9.65717 14.8436 9.84087 15.0103 10.0567 14.9995C10.2695 14.9995 10.4418 14.8272 10.4418 14.6145V13.9075C12.1651 13.7939 12.8595 12.746 12.8595 11.635C12.8595 10.1453 11.6097 9.69079 10.4418 9.37516ZM9.64649 9.17317C8.95843 8.97117 8.42189 8.76287 8.42189 8.17582C8.42189 7.58876 8.90795 7.16583 9.64649 7.10903V9.17317ZM10.4418 12.9354V10.6377C11.1552 10.8396 11.7106 11.1111 11.7043 11.7739C11.7043 12.2536 11.3761 12.8217 10.4418 12.9354Z"
            fill="#FAB44A" />
    </g>
    <defs>
        <clipPath id="clip0">
            <rect width="10" height="10" fill="white" transform="translate(5 5)" />
        </clipPath>
    </defs>
</svg>