<svg width="20" height="22" viewBox="0 0 20 22" fill="none" xmlns="http://www.w3.org/2000/svg">
<path d="M10 20.668C9.86211 20.668 9.72477 20.6151 9.61434 20.5087C8.76176 19.6886 7.95094 18.9282 7.1882 18.2132C2.88348 14.178 0 11.5117 0 7.62755C0 4.03855 2.30613 1.33203 5.3125 1.33203C7.68199 1.33203 9.20293 3.15296 10 4.79261C10.7971 3.15296 12.318 1.33203 14.6875 1.33203C17.6939 1.33203 20 4.03855 20 7.62755C20 11.5118 17.1165 14.178 12.8118 18.2132C12.0491 18.9282 11.2382 19.6886 10.3857 20.5087C10.2752 20.6151 10.1379 20.668 10 20.668Z" fill="#F23F2A"/>
<path d="M10.3857 20.5087C11.2382 19.6886 12.0491 18.9282 12.8118 18.2132C17.1165 14.178 20 11.5117 20 7.62755C20 4.03855 17.6939 1.33203 14.6875 1.33203C12.318 1.33203 10.7971 3.15296 10 4.79261V20.668C10.1379 20.668 10.2752 20.6151 10.3857 20.5087Z" fill="#DD271D"/>
</svg>
