<svg width="13" height="20" viewBox="0 0 13 20" fill="none" xmlns="http://www.w3.org/2000/svg">
<path d="M3.99092 0.604023L0.528207 10.9191C0.272041 11.6822 0.809793 12.4826 1.57862 12.4826H5.64021L4.33043 19.0531C4.16786 19.8687 5.16781 20.3512 5.64871 19.6893L11.8606 11.1384C12.4212 10.3668 11.8985 9.25336 10.9756 9.25336H7.72067L12.4043 1.38687C12.7635 0.783594 12.3515 0 11.6751 0H4.80228C4.43753 0 4.11242 0.242031 3.99092 0.604023Z" fill="#56F3BB"/>
<path d="M5.5824 19.7694C5.08235 20.3086 4.1748 19.8334 4.33 19.0531L5.63974 12.4825H6.02582C6.36875 12.4825 6.62484 12.8146 6.55445 13.1679L5.38134 19.0531C5.32245 19.3485 5.41611 19.6004 5.5824 19.7694Z" fill="#54B894"/>
<path d="M7.18126 0.000976562C6.81655 0.000976562 6.49122 0.242812 6.36965 0.605L2.90682 10.92C2.65069 11.683 3.18859 12.4834 3.95735 12.4834H1.57834C0.80955 12.4834 0.271687 11.683 0.527816 10.92L3.99064 0.605C4.11221 0.242812 4.43714 0.000976562 4.80185 0.000976562H7.18126Z" fill="#54B894"/>
</svg>
