<svg width="19" height="20" viewBox="0 0 19 20" fill="none" xmlns="http://www.w3.org/2000/svg">
<g clip-path="url(#clip0)">
<path d="M6.99092 0.604023L3.52821 10.9191C3.27204 11.6822 3.80979 12.4826 4.57862 12.4826H8.64021L7.33043 19.0531C7.16786 19.8687 8.16781 20.3512 8.64871 19.6893L14.8606 11.1384C15.4212 10.3668 14.8985 9.25336 13.9756 9.25336H10.7207L15.4043 1.38687C15.7635 0.783594 15.3515 0 14.6751 0H7.80228C7.43753 0 7.11242 0.242031 6.99092 0.604023Z" fill="#56F3BB"/>
<path d="M8.5824 19.7694C8.08235 20.3086 7.1748 19.8334 7.33 19.0531L8.63974 12.4825H9.02582C9.36875 12.4825 9.62484 12.8146 9.55445 13.1679L8.38134 19.0531C8.32245 19.3485 8.41611 19.6004 8.5824 19.7694Z" fill="#54B894"/>
<path d="M10.1813 0.000976562C9.81655 0.000976562 9.49122 0.242812 9.36965 0.605L5.90682 10.92C5.65069 11.683 6.18859 12.4834 6.95735 12.4834H4.57834C3.80955 12.4834 3.27169 11.683 3.52782 10.92L6.99064 0.605C7.11221 0.242812 7.43714 0.000976562 7.80185 0.000976562H10.1813Z" fill="#54B894"/>
</g>
<defs>
<clipPath id="clip0">
<rect width="19" height="20" fill="white"/>
</clipPath>
</defs>
</svg>
