<svg width="23" height="23" viewBox="0 0 23 23" fill="none" xmlns="http://www.w3.org/2000/svg">
<path d="M22.5335 20.286L17.6729 15.4248C18.8543 13.7816 19.5038 11.818 19.5038 9.75107C19.5038 7.14755 18.4902 4.69905 16.6466 2.85711C14.807 1.01597 12.3568 0 9.75159 0C7.14719 0 4.69781 1.01358 2.8566 2.85711C1.01539 4.69746 0.000976562 7.14676 0.000976562 9.75107C0.000976562 12.3554 1.0146 14.8039 2.8566 16.6466C4.69781 18.4878 7.14639 19.5037 9.75159 19.5037C11.8178 19.5037 13.7798 18.8574 15.4247 17.6729L20.2853 22.5342C20.5969 22.845 21.0024 23 21.4094 23C21.8172 23 22.2235 22.845 22.5335 22.5342C23.1544 21.9125 23.1544 20.9069 22.5335 20.286ZM5.10564 14.3977C3.86386 13.1559 3.18096 11.5048 3.18096 9.75028C3.18096 7.99578 3.86386 6.34623 5.10564 5.10449C6.34663 3.86275 7.99624 3.17908 9.75159 3.17908C11.5069 3.17908 13.1573 3.86275 14.3983 5.10449C15.6401 6.34623 16.3238 7.99658 16.3238 9.75107C16.3238 11.5056 15.6409 13.1559 14.3983 14.3985C13.1566 15.6402 11.5077 16.3223 9.75159 16.3223C7.99545 16.3223 6.34504 15.6386 5.10564 14.3977Z" fill="#7D849A"/>
</svg>
