<svg width="27" height="33" viewBox="0 0 27 33" fill="none" xmlns="http://www.w3.org/2000/svg">
<g filter="url(#filter0_d_37_210)">
<path fill-rule="evenodd" clip-rule="evenodd" d="M17.3439 6.14737C17.3439 8.4379 15.4871 10.2947 13.1966 10.2947C10.906 10.2947 9.04919 8.4379 9.04919 6.14737C9.04919 3.85684 10.906 2 13.1966 2C15.4871 2 17.3439 3.85684 17.3439 6.14737ZM19.3439 6.14737C19.3439 9.54247 16.5917 12.2947 13.1966 12.2947C9.80146 12.2947 7.04919 9.54247 7.04919 6.14737C7.04919 2.75227 9.80146 0 13.1966 0C16.5917 0 19.3439 2.75227 19.3439 6.14737ZM6 23.5649C6 18.9106 9.32945 15.3439 13.1965 15.3439C17.0635 15.3439 20.393 18.9106 20.393 23.5649C20.393 24.1172 20.8407 24.5649 21.393 24.5649C21.9453 24.5649 22.393 24.1172 22.393 23.5649C22.393 18.034 18.383 13.3439 13.1965 13.3439C8.00994 13.3439 4 18.034 4 23.5649C4 24.1172 4.44772 24.5649 5 24.5649C5.55228 24.5649 6 24.1172 6 23.5649Z" fill="#D8DCEA"/>
</g>
<defs>
<filter id="filter0_d_37_210" x="0" y="0" width="26.3929" height="32.5649" filterUnits="userSpaceOnUse" color-interpolation-filters="sRGB">
<feFlood flood-opacity="0" result="BackgroundImageFix"/>
<feColorMatrix in="SourceAlpha" type="matrix" values="0 0 0 0 0 0 0 0 0 0 0 0 0 0 0 0 0 0 127 0" result="hardAlpha"/>
<feOffset dy="4"/>
<feGaussianBlur stdDeviation="2"/>
<feComposite in2="hardAlpha" operator="out"/>
<feColorMatrix type="matrix" values="0 0 0 0 0 0 0 0 0 0 0 0 0 0 0 0 0 0 0.25 0"/>
<feBlend mode="normal" in2="BackgroundImageFix" result="effect1_dropShadow_37_210"/>
<feBlend mode="normal" in="SourceGraphic" in2="effect1_dropShadow_37_210" result="shape"/>
</filter>
</defs>
</svg>
