<svg width="58" height="82" viewBox="0 0 58 82" fill="none" xmlns="http://www.w3.org/2000/svg">
    <g>
        <path
            d="M42 35H51C53.7614 35 56 37.2386 56 40V75C56 77.7614 53.7614 80 51 80H7C4.23858 80 2 77.7614 2 75V40C2 37.2386 4.23858 35 7 35H15"
            class="stroke-to-change" stroke-width="3" />
        <circle cx="28.5" cy="20.5" r="13" stroke="black" stroke-width="3" />
        <path d="M22 32V39C22 40.6569 23.3431 42 25 42H32C33.6569 42 35 40.6569 35 39V32" class="stroke-to-change"
            stroke-width="3" />
        <path d="M24 41V44C24 45.6569 25.3431 47 27 47H30C31.6569 47 33 45.6569 33 44V41" class="stroke-to-change"
            stroke-width="3" />
        <rect x="27" width="3" height="3" class="fill-to-change" fill="black" />
        <rect x="44.4376" y="5" width="3" height="3" transform="rotate(54.3455 44.4376 5)" class="fill-to-change" />
        <rect width="3" height="3" transform="matrix(-0.582896 0.812547 0.812547 0.582896 11.7487 5)"
            class="fill-to-change" />
        <rect x="8" y="20" width="3" height="3" class="fill-to-change" />
        <rect x="46" y="20" width="3" height="3" class="fill-to-change" />
        <path
            d="M15.728 57.2V62H17.824V57.2L21.44 50.512H19.072L16.736 54.768L14.4 50.512H12.08L15.728 57.2ZM27.5425 50.288C24.3425 50.288 21.6225 52.848 21.6225 56.256C21.6225 59.664 24.3425 62.224 27.5425 62.224C30.7425 62.224 33.4625 59.664 33.4625 56.256C33.4625 52.784 30.7425 50.288 27.5425 50.288ZM27.5425 52.56C29.6705 52.56 31.3025 54.048 31.3025 56.256C31.3025 58.464 29.6705 59.952 27.5425 59.952C25.4145 59.952 23.7665 58.464 23.7665 56.256C23.7665 54.048 25.4145 52.56 27.5425 52.56ZM40.4956 50.288C37.2956 50.288 34.5756 52.848 34.5756 56.256C34.5756 59.664 37.2956 62.224 40.4956 62.224C43.6956 62.224 46.4156 59.664 46.4156 56.256C46.4156 52.784 43.6956 50.288 40.4956 50.288ZM40.4956 52.56C42.6236 52.56 44.2556 54.048 44.2556 56.256C44.2556 58.464 42.6236 59.952 40.4956 59.952C38.3676 59.952 36.7196 58.464 36.7196 56.256C36.7196 54.048 38.3676 52.56 40.4956 52.56Z"
            class="fill-to-change" />
        <path
            d="M9.56 68.262C9.56 70.432 11.254 71.958 13.172 71.958C14.25 71.958 15.076 71.552 15.314 71.02V71.594C15.314 73.008 14.264 73.316 13.368 73.316C12.276 73.316 11.38 72.77 10.904 72.182L10.372 73.778C10.792 74.492 12.024 75.178 13.508 75.178C15.692 75.178 17.092 73.848 17.092 71.902V64.79H15.37V65.532C15.132 65.014 14.278 64.594 13.2 64.594C11.268 64.594 9.56 66.078 9.56 68.262ZM11.352 68.304C11.352 67.24 12.178 66.484 13.438 66.484C14.32 66.484 15.09 66.932 15.314 67.422V69.2C15.09 69.704 14.32 70.124 13.438 70.124C12.178 70.124 11.352 69.382 11.352 68.304ZM18.7482 68.402C18.7482 70.656 20.4842 72.196 22.4162 72.196C23.4802 72.196 24.3202 71.776 24.5582 71.244V72H26.2802V64.79H24.5582V65.546C24.3202 65 23.4802 64.594 22.4162 64.594C20.4842 64.594 18.7482 66.148 18.7482 68.402ZM20.5402 68.402C20.5402 67.268 21.3942 66.484 22.6262 66.484C23.5082 66.484 24.2782 66.89 24.5022 67.436V69.354C24.2782 69.886 23.5082 70.306 22.6262 70.306C21.3942 70.306 20.5402 69.536 20.5402 68.402ZM36.6437 64.594C35.6497 64.594 34.8097 64.86 34.2357 65.644C33.6617 64.944 32.8077 64.594 31.9817 64.594C31.0017 64.594 30.3157 65 30.1337 65.518V64.79H28.4117V72H30.1897V67.534C30.3157 66.932 30.9737 66.484 31.6737 66.484C32.4717 66.484 33.0737 67.016 33.0737 67.954V72H34.8517V67.534C34.9777 66.932 35.6497 66.484 36.3497 66.484C37.1337 66.484 37.7357 67.03 37.7357 67.968V72H39.5137V67.576C39.5137 65.546 38.0157 64.594 36.6437 64.594ZM44.9533 70.404C43.8613 70.404 43.0213 69.97 42.8533 69.032H48.2013C48.2293 68.864 48.2433 68.612 48.2433 68.402C48.2433 66.386 46.8573 64.594 44.7293 64.594C42.4613 64.594 41.0333 66.358 41.0333 68.402C41.0333 70.74 42.6993 72.196 44.8973 72.196C46.2273 72.196 47.2633 71.622 47.7113 70.88L47.1653 69.508C46.7593 70.054 45.8493 70.404 44.9533 70.404ZM42.9233 67.576C43.0773 66.806 43.8473 66.4 44.7293 66.4C45.5973 66.4 46.3113 66.82 46.4233 67.576H42.9233Z"
            class="fill-to-change" />
    </g>
</svg>